<?xml version="1.0" encoding="utf-8"?>
<!-- Generator: Adobe Illustrator 22.1.0, SVG Export Plug-In . SVG Version: 6.00 Build 0)  -->
<svg version="1.1" id="Layer_1" xmlns="http://www.w3.org/2000/svg" xmlns:xlink="http://www.w3.org/1999/xlink" x="0px" y="0px"
	 viewBox="0 0 530 114" style="enable-background:new 0 0 530 114;" xml:space="preserve">
<style type="text/css">
	.st0{fill:none;stroke:#AA66CC;stroke-width:1.7;stroke-miterlimit:10;}
	.st1{fill:none;stroke:#00C851;stroke-width:1.7;stroke-miterlimit:10;}
</style>
<g id="Layer_3_copy">
	<g>
		<path class="st0" d="M155.9,43.9l6.7-31.8l3.4-3 M193,101.9l-3.4,3H143l9.8-46.6h-11.6l2.5-11.6l3.4-3 M181,90.4l6.9-32h-20.7
			 M179.2,43.9l4.3-20.3h-8.8"/>
		<path class="st0" d="M244.3,90.4l1.9-8.7l3.4-3 M256.4,101.9l-3.4,3h-46.4l17.2-81.4h-11.7l2.6-11.5l3.4-3"/>
		<path class="st0" d="M311.6,101.9l-3.4,3h-46.7L281.3,12l3.4-3 M299.5,90.4l14.2-66.9h-20.5"/>
		<path class="st0" d="M357.1,90.4l4.4-20.3h-11.7l2.5-11.7l3.4-3 M383.8,32.3l-3.4,3h-11.6l2.5-11.7h-20.4 M380.8,101.9l-3.4,3
			h-58.1L339.1,12l3.4-3"/>
	</g>
</g>
<g id="Layer_3">
	<g>
		<path class="st1" d="M193,102.3h-46.6l9.8-46.6h-11.6l2.5-11.6h11.6l7.4-34.6h35l-7.4,34.7h11.6L193,102.3z M183.7,90.8l7.5-35
			h-23.4l-7.5,35H183.7z M182,44.2l4.9-23.3h-11.6l-4.9,23.3H182z"/>
		<path class="st1" d="M256.4,102.3H210l17.1-81.4h-11.7L218,9.4h23.2l-17.3,81.4h23.2l2.6-11.7h11.7L256.4,102.3z"/>
		<path class="st1" d="M311.6,102.3h-46.7l19.8-92.9h46.4L311.6,102.3z M302.3,90.8l14.8-69.9h-23.3l-14.7,69.9H302.3z"/>
		<path class="st1" d="M380.8,102.3h-58.1l19.8-92.9h46.3l-4.9,23.2h-11.6l2.5-11.7h-23.2l-14.8,69.9h23l5-23.3h-11.7l2.5-11.7H379
			l-7.5,35h11.6L380.8,102.3z"/>
	</g>
</g>
</svg>
