<?xml version="1.0" encoding="utf-8"?>
<!-- Generator: Adobe Illustrator 22.1.0, SVG Export Plug-In . SVG Version: 6.00 Build 0)  -->
<svg version="1.1" id="Layer_1" xmlns="http://www.w3.org/2000/svg" xmlns:xlink="http://www.w3.org/1999/xlink" x="0px" y="0px"
	 viewBox="0 0 530 114" style="enable-background:new 0 0 530 114;" xml:space="preserve">
<style type="text/css">
	.st0{fill:none;stroke:#AA66CC;stroke-width:1.7;stroke-miterlimit:10;}
	.st1{fill:none;stroke:#00C851;stroke-width:1.7;stroke-miterlimit:10;}
</style>
<g id="portfolio_x5F_01_1_">
	<g>
		<path class="st0" d="M68,55.7l-2.5,2.6H33.2 M24.1,101.5l-2.5,2.6H9.3l16.9-80H14.7l2.5-11.3l3.5-2.7 M56.1,44.3L60.4,24H40.5"/>
		<path class="st0" d="M112.6,101.5l-3.5,2.6H63.2l19.4-91.3l3.6-2.7 M100.5,90.1l14-66.1H94.6"/>
		<path class="st0" d="M177.2,101.4l-3.5,2.6h-10.8l-11-42.1 M187.3,55.6l-3.5,2.6h-18.4 M143.5,101.4L140,104h-11.6l16.9-80h-11.4
			l2.5-11.3l3.5-2.6 M175.3,44.2l4.3-20.3h-19.8"/>
		<path class="st0" d="M257.4,21.2l-3.5,2.6h-17.7"/>
		<path class="st0" d="M211.5,32.7l-3.5,2.6h-11.4l4.8-22.8l3.5-2.6"/>
		<path class="st0" d="M219.9,101.2l-3.5,2.6h-11.5l16.9-80h-8.4"/>
		<path class="st0" d="M299.2,78.5l-3.5,2.6h-19.9"/>
		<path class="st0" d="M320.3,32.7l-3.5,2.6h-11.4l2.4-11.5h-19.9"/>
		<path class="st0" d="M271.5,101.4l-3.4,2.6h-11.4l16.9-80h-11.5l2.5-11.3l3.4-2.6"/>
		<path class="st0" d="M359.8,101.3l-3.5,2.6h-45.8l19.4-91.3l3.5-2.7 M347.7,89.9l14-66.1h-19.9"/>
		<path class="st0" d="M425.1,101.3l-3.5,2.6h-45.7l16.9-80h-11.5l2.5-11.3l3.6-2.7"/>
		<path class="st0" d="M412.9,90.1l2-9.1l3.6-2.7"/>
		<path class="st0" d="M446.7,101.3l-3.5,2.6h-11.4l16.9-80h-11.5l2.5-11.3l3.5-2.6"/>
		<path class="st0" d="M501.4,101.3l-3.5,2.6H452l19.4-91.3l3.6-2.7 M489.2,90.1l14.1-66.3h-19.9"/>
	</g>
</g>
<g id="portfolio_x5F_02">
	<g>
		<path class="st1" d="M68,55.7H33.8l-9.7,45.8H12.8l16.9-80H18.2l2.5-11.4h57L68,55.7z M59.1,44.3l4.8-22.9H41.1l-4.9,22.9H59.1z"
			/>
		<path class="st1" d="M112.6,101.5H66.7l19.5-91.4h45.7L112.6,101.5z M103.5,90.1l14.6-68.7H95.2L80.8,90.1H103.5z"/>
		<path class="st1" d="M187.3,55.6h-22.6l12.5,45.8h-12l-12-45.8l-9.7,45.8h-11.6l16.9-80h-11.4l2.5-11.3h57L187.3,55.6z
			 M178.3,44.2l4.8-22.9h-22.8l-4.8,22.9H178.3z"/>
		<path class="st1" d="M257.4,21.2h-20.7l-16.8,80h-11.5l16.9-80h-11.4l-2.4,11.5h-11.4l4.8-22.8h55L257.4,21.2z"/>
		<path class="st1" d="M320.3,32.7h-11.4l2.4-11.5h-22.8L278.8,67h22.7l-2.3,11.4h-22.9l-4.8,22.9h-11.4l16.9-80h-11.5L268,10h57
			L320.3,32.7z"/>
		<path class="st1" d="M359.8,101.3h-45.9l19.5-91.4h45.7L359.8,101.3z M350.6,89.9l14.6-68.7h-22.9l-14.4,68.7H350.6z"/>
		<path class="st1" d="M425.1,101.3h-45.7l16.9-80h-11.5l2.6-11.4h22.8l-17,79.9H416l2.5-11.5H430L425.1,101.3z"/>
		<path class="st1" d="M446.7,101.3h-11.4l16.9-80h-11.5l2.5-11.3H466L446.7,101.3z"/>
		<path class="st1" d="M501.4,101.3h-45.9L475,9.9h45.7L501.4,101.3z M492.2,89.9l14.5-68.7h-22.9l-14.5,68.7H492.2z"/>
	</g>
</g>
</svg>
