<?xml version="1.0" encoding="utf-8"?>
<!-- Generator: Adobe Illustrator 22.1.0, SVG Export Plug-In . SVG Version: 6.00 Build 0)  -->
<svg version="1.1" id="Layer_1" xmlns="http://www.w3.org/2000/svg" xmlns:xlink="http://www.w3.org/1999/xlink" x="0px" y="0px"
	 viewBox="0 0 2321 473" style="enable-background:new 0 0 2321 473;" xml:space="preserve">
<style type="text/css">
	.st0{fill:none;stroke:#AA66CC;stroke-width:4.5;stroke-miterlimit:10;}
	.st1{fill:none;stroke:#00C851;stroke-width:4.5;stroke-miterlimit:10;}
	.st2{fill:none;stroke:#FFFFFF;stroke-width:1.5;stroke-miterlimit:10;}
</style>
<g id="Layer_1_copy">
	<g>
		<path class="st0" d="M50.5,118.5l-8.9,7.5H13.9l11.8-55.4l8.8-7.1 M70.5,285.9l-8.4,7h-28L75.2,98H55 M162.5,90.5l-9.1,7.5H111"/>
		<path class="st0" d="M250.1,285.5l-9,7.4H129.4l47.3-222.3l9.4-7.1 M220.1,257.5L254.2,98h-47.7"/>
		<path class="st0" d="M380.9,196.5l49.8-125.9l9.2-7.1 M322.9,285.5l-8.7,7.4h-27.7L327.7,98h-28l6.2-27.4l9.1-7.1 M374.9,285.5
			l-7.7,7.4h-18.8L347.9,169 M461.9,285.5l-8.5,7.4h-55.7l25.2-121.4"/>
		<path class="st0" d="M566,195.5l49.6-124.9l9.4-7.1 M508,285.5l-8.9,7.4h-27.7L512.6,98h-28l6.2-27.4l9.3-7.1 M561,285.5l-9,7.4
			h-18.5L533,167 M647,285.5l-8.7,7.4h-55.7L609,168.5"/>
		<path class="st0" d="M693,285.5l-9.2,7.4h-27.7L697.3,98h-28l6.2-27.4l8.6-7.1"/>
		<path class="st0" d="M928.2,89.4l-9.3,8.6h-76.3 M857,257.5l15.9-76.1h-83.4l23.8-110.9l8.8-7.1 M887,285.5l-9.4,7.4H766.2
			l5.9-27.7l8.9-6.7"/>
		<path class="st0" d="M960.5,285.5l-9.4,7.4h-27.7L964.5,98h-28l6.2-27.4l8.8-7.1 M1071.5,285.5l-9,7.4h-55.7l17.4-83.4H976
			 M1031.5,174.5l16.4-76.5H1000 M1023.5,38.5l-8.9,7.1h-27.7l5.6-27.7l10.5-7 M1084.5,38.5l-9.4,7.1h-27.7l5.9-27.7l8.2-7.4"/>
		<path class="st0" d="M1117.5,285.5l-9.4,7.4h-27.7L1121.5,98h-28l6.2-27.4l8.8-7.1 M1228.5,285.5l-9,7.4h-55.7l17.4-83.4H1133
			 M1188.5,174.5L1205,98h-48 M1180.5,38.5l-8.8,7.1H1144l5.6-27.7l10-7.4 M1241.5,38.5l-9.4,7.1h-27.7l5.9-27.7l10.2-7"/>
		<path class="st0" d="M1399.5,90.5l-9.2,7.5H1315 M1328.5,257.5l15.9-76.1H1261l23.8-110.9l8.7-7.1 M1358.5,285.5l-9.3,7.4h-111.4
			l5.9-27.7l8.9-6.7"/>
		<path class="st0" d="M1463.5,138.5l54.8-67.9l9.2-7.1 M1432.5,285.5l-9.4,7.4h-27.7L1436.5,98h-28l6.2-27.4l8.8-7.1 M1515.5,285.5
			l-8.7,7.4H1481l-32.5-83.4"/>
		<path class="st0" d="M1589.5,285.5l-9.4,7.4h-27.7L1593.6,98h-28l6.2-27.4l8.8-7.1"/>
		<path class="st0" d="M1716,258.5l5.1-21.3l8.9-6.7 M1746,285.5l-8.6,7.4h-111.2L1667.4,98h-28l6.2-27.4l9.5-7.1"/>
		<path class="st0" d="M1904,285.5l-8.7,7.4h-55.7l17.4-83.4h-47.4 M1793,285.5l-9.2,7.4h-27.7L1797.2,98h-28l6.2-27.4l8.6-7.1
			 M1865,174.5l15.7-76.5h-48.2"/>
		<path class="st0" d="M2015.7,202.5l28.6-131.9l9.4-7.1 M1932.7,202.5L1955,98h-28l6.2-27.4l10.4-7 M1950.7,285.5l-8.9,7.4h-28.3
			l11.8-55.7h-27.7l5.9-27.7l9.2-6.9 M2034.7,285.5l-9.4,7.4h-28l11.8-55.7h-47.8"/>
		<path class="st0" d="M2116.4,118.5l-8.6,7.5H2080l11.8-55.4l8.6-7.1 M2137.4,285.5l-9.2,7.4h-28L2141.4,98h-20.5 M2228.4,90.5
			l-8.9,7.5h-42.6"/>
		<path class="st0" d="M2262.4,285.5l-9.5,7.4h-27.7L2266.4,98h-28l6.2-27.4l8.9-7.1"/>
	</g>
</g>
<g id="Layer_1_1_">
	<g>
		<path class="st1" d="M162.4,91H112L71.1,285.9h-28L84.2,91H56.5l-5.9,28H22.9l11.8-55.4h133.6L162.4,91z"/>
		<path class="st1" d="M250.1,285.9H138.4l47.3-222.3h111.2L250.1,285.9z M227.7,258.2L263.2,91h-55.7l-35.3,167.2H227.7z"/>
		<path class="st1" d="M462.4,285.9h-55.7l32.5-154.3l-63,154.3H356l-0.3-154.3l-32.5,154.3h-27.7L336.7,91h-28l6.2-27.4H384
			l-3.6,149.8l59.4-149.8h41.7L440,258.2h28L462.4,285.9z"/>
		<path class="st1" d="M647.3,285.9h-55.7L624,131.6l-63,154.3h-20.2l-0.3-154.3L508,285.9h-27.7L521.6,91h-28l6.2-27.4H569
			l-3.6,149.8l59.4-149.8h41.7l-41.4,194.6h28L647.3,285.9z"/>
		<path class="st1" d="M692.9,285.9h-27.7L706.3,91h-28l6.2-27.4h55.4L692.9,285.9z"/>
		<path class="st1" d="M886.7,285.9H775.2l5.9-27.7h83.2l17.6-83.7h-83.4l23.8-110.9h111.4L927.8,91h-83.4l-11.8,55.7H916
			L886.7,285.9z"/>
		<path class="st1" d="M1071.5,285.9h-55.7l17.4-83.4h-55.4L960,285.9h-27.7L973.5,91h-28l6.2-27.4h139.2l-41.4,194.6h27.7
			L1071.5,285.9z M1039.3,174.4l17.6-83.4h-55.7l-17.6,83.4H1039.3z M1023.6,38.6h-27.7l5.6-27.7h27.7L1023.6,38.6z M1084.1,38.6
			h-27.7l5.9-27.7h27.7L1084.1,38.6z"/>
		<path class="st1" d="M1228.5,285.9h-55.7l17.4-83.4h-55.4l-17.6,83.4h-27.7l41-194.9h-28l6.2-27.4h139.2l-41.4,194.6h27.7
			L1228.5,285.9z M1196.3,174.4L1214,91h-55.7l-17.6,83.4H1196.3z M1180.6,38.6h-27.7l5.6-27.7h27.7L1180.6,38.6z M1241.1,38.6
			h-27.7l5.9-27.7h27.7L1241.1,38.6z"/>
		<path class="st1" d="M1358.2,285.9h-111.4l5.9-27.7h83.2l17.6-83.7H1270l23.8-110.9h111.4l-5.9,27.4h-83.4l-11.8,55.7h83.4
			L1358.2,285.9z"/>
		<path class="st1" d="M1515.8,285.9h-30l-35-89l-18.8,89h-27.7L1445.5,91h-28l6.2-27.4h55.4L1462,145l65.2-81.5h35.3L1474,171.6
			L1515.8,285.9z"/>
		<path class="st1" d="M1589.1,285.9h-27.7L1602.6,91h-28l6.2-27.4h55.4L1589.1,285.9z"/>
		<path class="st1" d="M1746.4,285.9h-111.2L1676.4,91h-28l6.2-27.4h55.4l-41.4,194.6h55.4l6.2-28h28L1746.4,285.9z"/>
		<path class="st1" d="M1904.2,285.9h-55.7l17.4-83.4h-55.4l-17.6,83.4h-27.7l41-194.9h-28l6.2-27.4h139.2l-41.4,194.6h27.7
			L1904.2,285.9z M1872,174.4l17.6-83.4h-55.7l-17.6,83.4H1872z"/>
		<path class="st1" d="M2034.2,285.9h-28l11.8-55.7h-55.4l-11.8,55.7h-28.3l11.8-55.7h-27.7l5.9-27.7h28L1964,91h-28l6.2-27.4h55.4
			l-29.4,138.9h55.4l29.7-138.9h28L2034.2,285.9z"/>
		<path class="st1" d="M2228.5,91h-50.4l-40.9,194.9h-28L2150.4,91h-27.7l-5.9,28H2089l11.8-55.4h133.6L2228.5,91z"/>
		<path class="st1" d="M2261.9,285.9h-27.7L2275.4,91h-28l6.2-27.4h55.4L2261.9,285.9z"/>
	</g>
</g>
<g>
	<path class="st2" d="M265.9,437l-1.2,0.3l-5.3-15.7h-27.1l-5.3,15.7l-1.2-0.3l19.4-58.1h1.4L265.9,437z M259,420.3l-13.2-39.5
		l-13.1,39.5H259z"/>
	<path class="st2" d="M317.7,437.2h-1.4l-31-55.8v55.8H284v-58.3h1.4l31,55.8v-55.8h1.3V437.2z"/>
	<path class="st2" d="M337.2,437.2h-1.3v-58.3h1.3V437.2z"/>
	<path class="st2" d="M395.5,437.2h-1.3v-55.9l-18.8,31.2l-18.8-31.2v55.9h-1.3v-58.3h1.4l18.7,31.2l18.7-31.2h1.4V437.2z"/>
	<path class="st2" d="M453.8,437l-1.2,0.3l-5.3-15.7h-27.1l-5.3,15.7l-1.2-0.3l19.4-58.1h1.4L453.8,437z M446.9,420.3l-13.2-39.5
		l-13.1,39.5H446.9z"/>
	<path class="st2" d="M505,379.5h-15.5v57.7h-1.3v-57.7h-15.6v-1.3H505V379.5z"/>
	<path class="st2" d="M525.1,437.2h-1.3v-58.3h1.3V437.2z"/>
	<path class="st2" d="M576.9,420.9c0,4.7-1.6,8.7-4.9,11.9c-3.3,3.3-7.3,4.9-12,4.9c-4.7,0-8.7-1.6-12-4.9
		c-3.3-3.3-4.9-7.2-4.9-11.9v-25.9c0-4.7,1.6-8.6,4.9-12c3.3-3.3,7.3-4.9,12-4.9c4.7,0,8.7,1.6,12,4.9c3.3,3.3,4.9,7.3,4.9,12V420.9
		z M575.7,420.9v-25.9c0-4.3-1.5-7.9-4.6-11c-3-3-6.7-4.6-11-4.6s-8,1.5-11,4.5c-3,3-4.5,6.7-4.5,11v25.9c0,4.4,1.5,8.1,4.5,11.1
		c3,3,6.7,4.5,11,4.5c4.3,0,8-1.5,11-4.5C574.1,429,575.7,425.3,575.7,420.9z"/>
	<path class="st2" d="M628.8,437.2h-1.4l-31-55.8v55.8h-1.3v-58.3h1.4l31,55.8v-55.8h1.3V437.2z"/>
	<path class="st2" d="M673.4,464.6h-1.3V344.8h1.3V464.6z"/>
	<path class="st2" d="M756.8,437l-1.2,0.3l-5.3-15.7h-27.1l-5.3,15.7l-1.2-0.3l19.4-58.1h1.4L756.8,437z M749.9,420.3l-13.2-39.5
		l-13.1,39.5H749.9z"/>
	<path class="st2" d="M808.7,395.1c0,9.1-4.2,14.5-12.6,16.3l12.6,25.5l-1.2,0.5l-12.7-25.8c-1.2,0.2-2.4,0.3-3.7,0.3h-14.7v25.3
		h-1.3v-59h16c4.5,0,8.2,1,11.3,3.1C806.5,384.2,808.7,388.8,808.7,395.1z M807.4,395.1c0-5.8-1.9-10-5.8-12.7
		c-2.8-1.9-6.3-2.9-10.6-2.9h-14.7v31.1H791c4.3,0,7.8-0.9,10.6-2.8C805.4,405.2,807.4,400.9,807.4,395.1z"/>
	<path class="st2" d="M853.4,437.7h-9.8c-5.3,0-9.5-1.5-12.4-4.4c-3-3-4.4-7.1-4.4-12.4v-25.9c0-5.3,1.5-9.4,4.4-12.4
		c3-3,7.1-4.5,12.4-4.5h9.8v1.3h-9.8c-5,0-8.8,1.3-11.5,4c-2.7,2.7-4,6.5-4,11.5v25.9c0,2.5,0.3,4.7,1,6.6c0.7,1.9,1.7,3.6,3,4.9
		c1.3,1.3,3,2.4,4.9,3.1c1.9,0.7,4.1,1.1,6.6,1.1h9.8V437.7z"/>
	<path class="st2" d="M905.9,437.2h-1.3v-31.8h-31.1v31.8h-1.3v-58.3h1.3v25.3h31.1v-25.3h1.3V437.2z"/>
	<path class="st2" d="M925.3,437.2H924v-58.3h1.3V437.2z"/>
	<path class="st2" d="M983.6,379.1l-19.4,58.1h-1.4l-19.4-58.1l1.2-0.4l18.8,56.5l18.9-56.5L983.6,379.1z"/>
	<path class="st2" d="M1003.1,437.2h-1.3v-58.3h1.3V437.2z"/>
	<path class="st2" d="M1055.4,378.2l-32.4,58.4h31.2v1.2h-33.5l32.4-58.2h-31.3v-1.3H1055.4z"/>
	<path class="st2" d="M1099.5,464.6h-1.3V344.8h1.3V464.6z"/>
	<path class="st2" d="M1176.4,395.1c0,6.4-2.1,11-6.4,13.8c-3,2-6.8,3-11.3,3H1144v25.3h-1.3v-59h16c4.5,0,8.2,1,11.3,3.1
		C1174.3,384.2,1176.4,388.8,1176.4,395.1z M1175.2,395.1c0-5.8-1.9-10-5.8-12.7c-2.8-1.9-6.3-2.9-10.6-2.9H1144v31.1h14.7
		c4.3,0,7.8-0.9,10.6-2.8C1173.2,405.2,1175.2,400.9,1175.2,395.1z"/>
	<path class="st2" d="M1228.3,437.2h-1.3v-31.8h-31.1v31.8h-1.3v-58.3h1.3v25.3h31.1v-25.3h1.3V437.2z"/>
	<path class="st2" d="M1280.1,420.9c0,4.7-1.6,8.7-4.9,11.9c-3.3,3.3-7.3,4.9-12,4.9c-4.7,0-8.7-1.6-12-4.9
		c-3.3-3.3-4.9-7.2-4.9-11.9v-25.9c0-4.7,1.6-8.6,4.9-12c3.3-3.3,7.3-4.9,12-4.9s8.7,1.6,12,4.9s4.9,7.3,4.9,12V420.9z
		 M1278.9,420.9v-25.9c0-4.3-1.5-7.9-4.6-11s-6.7-4.6-11-4.6s-8,1.5-11,4.5s-4.5,6.7-4.5,11v25.9c0,4.4,1.5,8.1,4.5,11.1
		s6.7,4.5,11,4.5c4.3,0,8-1.5,11-4.5C1277.3,429,1278.9,425.3,1278.9,420.9z"/>
	<path class="st2" d="M1331.3,379.5h-15.5v57.7h-1.3v-57.7H1299v-1.3h32.4V379.5z"/>
	<path class="st2" d="M1383.9,420.9c0,4.7-1.6,8.7-4.9,11.9c-3.3,3.3-7.3,4.9-12,4.9c-4.7,0-8.7-1.6-12-4.9
		c-3.3-3.3-4.9-7.2-4.9-11.9v-25.9c0-4.7,1.6-8.6,4.9-12c3.3-3.3,7.3-4.9,12-4.9s8.7,1.6,12,4.9s4.9,7.3,4.9,12V420.9z
		 M1382.6,420.9v-25.9c0-4.3-1.5-7.9-4.6-11s-6.7-4.6-11-4.6s-8,1.5-11,4.5s-4.5,6.7-4.5,11v25.9c0,4.4,1.5,8.1,4.5,11.1
		s6.7,4.5,11,4.5c4.3,0,8-1.5,11-4.5C1381.1,429,1382.6,425.3,1382.6,420.9z"/>
	<path class="st2" d="M1435.7,437.7h-16.9c-4.8,0-8.8-1.6-12-4.7c-3.2-3.2-4.8-7.2-4.8-12v-25.9c0-5.1,1.8-9.3,5.5-12.5
		c3.3-2.9,7.1-4.4,11.3-4.4h16.2v1.3h-16.2c-3.9,0-7.4,1.3-10.5,4c-3.4,3-5.1,6.8-5.1,11.5v25.9c0,4.5,1.5,8.2,4.4,11.2
		c3,3,6.7,4.4,11.1,4.4h15.6v-31.2h-9.1v-1.3h10.4V437.7z"/>
	<path class="st2" d="M1487.6,395.1c0,9.1-4.2,14.5-12.6,16.3l12.6,25.5l-1.2,0.5l-12.7-25.8c-1.2,0.2-2.4,0.3-3.7,0.3h-14.7v25.3
		h-1.3v-59h16c4.5,0,8.2,1,11.3,3.1C1485.4,384.2,1487.6,388.8,1487.6,395.1z M1486.3,395.1c0-5.8-1.9-10-5.8-12.7
		c-2.8-1.9-6.3-2.9-10.6-2.9h-14.7v31.1h14.7c4.3,0,7.8-0.9,10.6-2.8C1484.4,405.2,1486.3,400.9,1486.3,395.1z"/>
	<path class="st2" d="M1545.9,437l-1.2,0.3l-5.3-15.7h-27.1l-5.3,15.7l-1.2-0.3l19.4-58.1h1.4L1545.9,437z M1539,420.3l-13.2-39.5
		l-13.1,39.5H1539z"/>
	<path class="st2" d="M1597.7,395.1c0,6.4-2.1,11-6.4,13.8c-3,2-6.8,3-11.3,3h-14.7v25.3h-1.3v-59h16c4.5,0,8.2,1,11.3,3.1
		C1595.6,384.2,1597.7,388.8,1597.7,395.1z M1596.5,395.1c0-5.8-1.9-10-5.8-12.7c-2.8-1.9-6.3-2.9-10.6-2.9h-14.7v31.1h14.7
		c4.3,0,7.8-0.9,10.6-2.8C1594.5,405.2,1596.5,400.9,1596.5,395.1z"/>
	<path class="st2" d="M1649.6,437.2h-1.3v-31.8h-31.1v31.8h-1.3v-58.3h1.3v25.3h31.1v-25.3h1.3V437.2z"/>
	<path class="st2" d="M1709.3,379.2l-20,29v29h-1.3v-29l-20-29l1.1-0.8l19.6,28.4l19.6-28.4L1709.3,379.2z"/>
	<path class="st2" d="M1754.1,464.6h-1.3V344.8h1.3V464.6z"/>
	<path class="st2" d="M1850.5,379l-12.9,58.2h-1.3l-12.3-37.3l-12.3,37.3h-1.4l-12.9-58.2l1.3-0.3l12.4,56l12.8-39l12.8,39l12.4-56
		L1850.5,379z"/>
	<path class="st2" d="M1895.2,437.7h-26.6v-59.5h26.6v1.3H1870v24.6h18.8v1.3H1870v31.2h25.3V437.7z"/>
	<path class="st2" d="M1947.7,420.9c0,6.5-2.5,11.2-7.5,14.1c-3,1.8-6.2,2.7-9.4,2.7H1914v-59.5h16.8c3.1,0,5.9,0.7,8.3,2.1
		c3.9,2.3,5.8,6.1,5.8,11.5c0,6.2-3.1,10.5-9.4,12.9C1943.6,406.8,1947.7,412.2,1947.7,420.9z M1943.6,391.8c0-4.9-1.7-8.3-5.2-10.4
		c-2.2-1.3-4.7-1.9-7.6-1.9h-15.5v24.6h17.1c1.7,0,3.8-0.8,6.1-2.5C1941.9,399.2,1943.6,395.9,1943.6,391.8z M1946.4,420.9
		c0-8.8-4.7-13.9-14-15.6h-17.1v31.2h15.5c3,0,5.9-0.8,8.7-2.5C1944.1,431.2,1946.4,426.9,1946.4,420.9z"/>
	<path class="st2" d="M1999.6,419.3c0,5.6-2.2,10.2-6.6,13.8c-3.8,3.1-7.7,4.6-11.9,4.6h-15.2v-59.5h15.2c4.2,0,8.1,1.6,11.9,4.7
		c4.4,3.7,6.6,8.3,6.6,13.8V419.3z M1998.3,419.3v-22.7c0-5.2-2-9.4-6.1-12.8c-3.5-2.9-7.2-4.4-11.1-4.4h-13.9v57h13.9
		c3.9,0,7.6-1.5,11.1-4.4C1996.3,428.8,1998.3,424.5,1998.3,419.3z"/>
	<path class="st2" d="M2044.3,437.7h-26.6v-59.5h26.6v1.3H2019v24.6h18.8v1.3H2019v31.2h25.3V437.7z"/>
	<path class="st2" d="M2103.2,379.1l-19.4,58.1h-1.4l-19.4-58.1l1.2-0.4l18.8,56.5l18.9-56.5L2103.2,379.1z"/>
</g>
</svg>
