<?xml version="1.0" encoding="UTF-8"?>
<!-- Generator: Adobe Illustrator 22.1.0, SVG Export Plug-In . SVG Version: 6.00 Build 0)  -->
<svg version="1.1" id="Layer_1" xmlns="http://www.w3.org/2000/svg" xmlns:xlink="http://www.w3.org/1999/xlink" x="0px" y="0px" viewBox="0 0 2500 2500" style="enable-background:new 0 0 2500 2500;" xml:space="preserve">
<style type="text/css">
	.st0{fill:#F5F8FA;}
	.st1{fill:#E5EEF6;}
	.st2{fill:#0E8CFC;}
	.st3{fill:#5DB9FB;}
	.st4{fill:#2A9FFC;}
	.st5{fill:#70C2FD;}
</style>
<g>
	<g>
		<path class="st0" d="M293.6,2028.6c-0.8-38.3-2.2-76.6-2.3-114.8c-0.2-471.7-0.2-943.3-0.1-1415c0-27,0.5-54,3.3-80.8    c6.5-63.4,45.4-103.3,108.6-111.3c22.4-2.9,45.4-2.9,68.1-2.9c518.5-0.1,1037.1-0.1,1555.6,0c144.7,0,180.9,36,181.7,181.4    c0.2,34-1.4,68-2.2,102c-22.4,14.6-22.9,37.4-22.9,60.6c0,78.1-0.4,156.3,0.1,234.4c0.6,78.6-21.6,143.2-82.6,200.2    c-126.7,118.2-246.2,244-369.1,366.2c-20.8,20.7-40.5,45.3-75.6,40.3c-23.9-12.6-23.7-36.7-28.2-58.7    c-49.8-239.2-102.8-477.5-190.1-706.6c-15.5-50.7-39.7-97.3-70.9-139.9c-56.5-77.3-122.6-88.6-202.5-36.5    C1065.3,612,999,706.6,936.4,802.9C821,980.8,729.9,1171.6,647,1366.4c-12.8,30.1-17,63.2-33.1,92.1c-1.6,3.9-3.5,7.5-5.5,11.2    c-2.7,5.6-5.6,11.1-8.4,16.7c-76.3,166.2-139,337.8-206.6,507.5c-14.7,36.9-17.5,81.1-54.8,106.8c-22.1-5.4-29.7-21.6-31.1-42.2    C306.8,2046.6,310.5,2032.9,293.6,2028.6z"/>
		<path class="st1" d="M293.6,2028.6c8.6,3.5,17.3,7.1,25.9,10.6c-10.7,25.1,6.4,40.9,19.4,58.1c27.2,62.5,79.6,72.2,140.5,71.4    c103.6-1.4,207.3-2.3,311,0.6c290.7-3.4,581.5-0.4,872.2-1.6c91.9-0.4,92.5,11.5,75.5-91.2c-29.2-176.2-59.5-352.2-87.7-528.6    c-3.4-20.9-8-42.1,2.5-62.5c21.3-13,46.1-22.6,63.5-39.7c129.5-127.5,255-259.1,387.3-383.6c51.1-48,66.1-102.4,67-165.7    c1.3-90.8,1.1-181.7-0.1-272.6c-0.4-26.7,6.3-41.3,35.6-36.8c0.9,15.5,2.5,31,2.5,46.5c0,463.2-0.1,926.4-0.2,1389.5    c0,18.5-0.5,36.9-1.4,55.4c-4.3,89-35.4,124.9-122.4,141.3c-9.2,18.9-1668.3,18.9-1677.3-0.2    C312.6,2196.2,284.4,2149,293.6,2028.6z"/>
		<path class="st2" d="M1653,1485.5c19.3,108.9,39.4,217.6,57.6,326.7c20.2,121,38.8,242.2,58.6,366.3c-11.2,1.7-20.3,4.3-29.4,4.3    c-309.4,0.1-618.8,0-928.2-0.2c-7,0-14.1-1.3-21.1-2c-15.9-25.9-4.3-52.5-0.7-78.4c26.9-191.8,76.5-378.5,128.7-564.5    c5.4-19.2,9.9-38.5,14.8-57.8c32.8-96.2,58.8-195,105.9-285.9c59.1-114,108.2-233.4,196.8-330.6c52.4-57.5,114.5-100.8,178.2-143    c9.3-6.2,19.9-11.5,31.8-5.4c79.3,198.3,126.5,405.5,171.9,613.3C1629.3,1380.8,1641.3,1433.1,1653,1485.5z"/>
		<path class="st3" d="M1445.9,715.1c-140.8,74.1-243.6,187.4-320.1,323.6c-43.4,77.2-76.6,160.4-110.5,242.5    c-26.2,63.3-46.4,129-69.3,193.7c-13.4,11.8-28.6,16.9-46.7,15.9c-75.1-4.4-150.3-0.5-225.4-2.5c-26.5-0.7-54.8,1.5-73.7-23.9    c26.7-69.9,49.4-141.6,80.9-209.3c78.9-169.6,160.8-338,267.3-492.6c58-84.1,119.4-165.9,206-223.9    c87.9-58.9,155.3-50.5,216.8,34.8C1402.2,616.2,1421.4,667.6,1445.9,715.1z"/>
		<path class="st4" d="M330.6,408.4c18.3-56.5,65.4-66.1,114.7-66.3c251.1-0.9,502.2-0.4,761.7-0.4c-29.5,35.5-56.8,65-80.4,97.3    c-67.8,93.1-134.6,187-200.8,281.2c-26.5,37.7-50.4,77.2-75.6,115.9c-69,12.8-138.3-0.5-207.6,3.3c-82,4.5-164.3,2-246.4,0.9    c-52.4-0.7-58.6-7.8-58.7-59.3c-0.2-107.6,0.1-215.3-0.2-322.9C337.3,441.3,340.6,423.8,330.6,408.4z"/>
		<path class="st5" d="M600.2,1464.3c115.3,3.5,230.5,7,345.8,10.5c-26.3,101-56.1,201.2-78.1,303.1    c-28.9,133.5-51.8,268.4-77.3,402.7c-118.9,0.2-237.9,1.5-356.8,0.2c-63-0.7-93.4-29.7-94.8-83.4c49.2-126,97.4-252.5,148-377.9    c33.1-82.1,69.8-162.8,104.8-244.1c3.9-2.8,7.1-6.3,9.7-10.3L600.2,1464.3z"/>
		<path class="st2" d="M330.6,408.4c5.1,12.8,14.5,25.6,14.6,38.5c1.2,112,1.8,224,0.2,335.9c-0.5,32.4,7.3,45.4,42.4,43.9    c100.2-4.3,200.6-7.6,300.9-6.7c53.9,0.5,107.7,10.4,161.6,16c-109.1,212.6-220,424.3-326.5,638.2    c-57.9,116.2-108.2,236.1-162.4,354c-6.2,13.6-15.8,25.7-23.7,38.5c-2.4,4.2-4.4,3.9-6.2-0.4c0.2-8.7,0.3-17.4,0.5-26.2    c2.9-18.4,1.4-36.9,1.4-55.3c0.1-440.3,0.1-880.6,0-1320.9c0-15.6,1.1-31.3-1.1-46.8C331.6,414.1,331.1,411.2,330.6,408.4z"/>
		<path class="st4" d="M330.6,408.4c1.9,15.1,6.9,38.9,7.1,54.1c2.1,131.9,5.2,263.7,4.9,395.6c-0.8,319.3-3.2,638.6-5.2,957.9    c-0.1,8.1-3.6,16.1-5.6,24.2c-0.8-12.7-2.3-25.4-2.3-38.1c0.1-438.9,0.2-877.9,0.5-1316.8C330,462.5,329.8,431.1,330.6,408.4z"/>
		<path class="st3" d="M601.5,1465c-3.2,3.4-6.5,6.9-9.7,10.3C595,1471.8,598.2,1468.4,601.5,1465z"/>
	</g>
</g>
</svg>