<?xml version="1.0" encoding="UTF-8"?>
<!-- Generator: Adobe Illustrator 22.1.0, SVG Export Plug-In . SVG Version: 6.00 Build 0)  -->
<svg version="1.1" id="Layer_1" xmlns="http://www.w3.org/2000/svg" xmlns:xlink="http://www.w3.org/1999/xlink" x="0px" y="0px" viewBox="0 0 2500 2500" style="enable-background:new 0 0 2500 2500;" xml:space="preserve">
<style type="text/css">
	.st0{fill:#82171A;}
	.st1{fill:#D43B2D;}
	.st2{fill:#AA2424;}
	.st3{fill:#3A1316;}
	.st4{fill:#AE242C;}
	.st5{fill:#491512;}
	.st6{fill:#381515;}
	.st7{fill:#CC2D29;}
	.st8{fill:#A72326;}
	.st9{fill:#A91F26;}
	.st10{fill:#5D1518;}
	.st11{fill:#201213;}
	.st12{fill:#481517;}
</style>
<g>
	<g>
		<path class="st0" d="M1569.1,1981.8c-52.7-1.2-105.5-3.2-158.2-3.4c-192.8-0.9-385.6-1.2-578.4-1.8    c11.4-65.4,22.4-130.9,34.2-196.2c16.5-91.1,33.7-182.2,50.5-273.2c3.1-4.5,6.2-8.9,9.4-13.4c96.7-38,193.8-74.7,289.8-114.2    c78.6-32.3,156-67.9,233.9-102c3.2,0.1,6.5,0.3,9.7,0.4c-0.1,12.4-1.8,25.1,0.1,37.2c18.8,119,37.5,238.1,57.8,356.9    c16.4,95.8,35,191.2,52.7,286.8c0.4,5.8,0.8,11.5,1.1,17.3C1570.5,1977.8,1569.7,1979.7,1569.1,1981.8z"/>
		<path class="st1" d="M1450.2,1277.4c-77.9,34.1-155.2,69.7-233.9,102c-96,39.5-193.2,76.3-289.8,114.2    c81-336.6,162.4-673.2,242.8-1009.9c23.3-97.5,43.4-195.8,65-293.7c6.6-5.5,13.1-11,19.7-16.5c0,6.2-0.9,12.6,0.3,18.6    c41.8,227.9,84.2,455.7,125.6,683.6C1404.1,1009.5,1426.8,1143.5,1450.2,1277.4z"/>
		<path class="st2" d="M1234.3,190c-21.6,97.9-41.8,196.2-65,293.7c-80.3,336.8-161.7,673.3-242.8,1009.9c-3.1,4.5-6.2,9-9.4,13.5    c-16.3,4.6-32.9,8.3-48.8,13.9c-139.8,49.3-279.6,98.9-419.3,148.4c81.8-156.7,162.9-313.7,245.7-469.9    c170.7-322.3,342.2-644.1,513.5-966C1216,218.6,1225.5,204.5,1234.3,190z"/>
		<path class="st3" d="M1570.5,1958.7c-17.6-95.6-36.3-191-52.7-286.8c-20.3-118.8-39-237.8-57.8-356.9c-1.9-12.1-0.1-24.8-0.1-37.2    c103-44.1,206-88.3,308.9-132.4c21.3,37.7,42.6,75.3,64,113c0,54.8-3.9,109.9,0.8,164.2c8.3,96.3,24.3,192,32.6,288.3    c7.6,88.1,9.1,176.8,13.3,265.2c-99.7-0.1-199.3-0.1-299-0.2C1577.2,1970.2,1573.8,1964.4,1570.5,1958.7z"/>
		<path class="st4" d="M1768.8,1145.4c-103,44.1-206,88.3-308.9,132.4c-3.2-0.1-6.5-0.3-9.7-0.4c-23.4-133.9-46.1-267.9-70.4-401.6    c-41.4-228-83.8-455.7-125.6-683.6c-1.1-6-0.2-12.4-0.3-18.6c93.2,173.9,186.9,347.5,279.3,521.8    C1612.6,844.9,1690.4,995.3,1768.8,1145.4z"/>
		<path class="st5" d="M449,1669.5c139.8-49.5,279.5-99.1,419.3-148.4c15.9-5.6,32.5-9.3,48.8-13.9c-16.9,91-34,182.1-50.5,273.2    c-11.8,65.3-22.8,130.8-34.2,196.2c0,0-1.9,2.5-1.9,2.5s-3.1-0.1-3.1,0c-119.3-0.3-238.5-0.6-357.8-0.9c-3.6-0.3-7.1-0.6-10.7-0.9    c-2.9-38.5-6.2-77-8.6-115.5c-3.7-58.7-6.8-117.4-10.1-176.1C443.1,1680.2,446,1674.8,449,1669.5z"/>
		<path class="st6" d="M1879.5,1976.2c-4.2-88.4-5.8-177.1-13.3-265.2c-8.3-96.3-24.2-192-32.6-288.3c-4.7-54.4-0.8-109.5-0.8-164.2    c116.2,220,232.5,440,348.6,660.1c8.6,16.3,16.1,33.3,24.2,49.9c-2.8,2.8-5.6,5.7-8.4,8.5c-96.8,1.2-193.7,2.4-290.5,3.6    C1897.6,1979.1,1888.5,1977.6,1879.5,1976.2z"/>
		<path class="st7" d="M1879.5,1976.2c9,1.4,18.1,2.9,27.1,4.3c3.4,43,5.2,86.3,10.7,129c7.6,59,18,117.7,27.3,176.5    c-45.2,6.5-90.4,14.2-135.8,19.2c-59.9,6.7-120.1,11.3-185.6,17.3c-18.3-115.1-36.3-227.9-54.2-340.7c0.6-2,1.4-4,2.5-5.8    c0,0,4.5,0.8,4.5,0.8s4.5-0.8,4.5-0.8C1680.2,1976,1779.8,1976.1,1879.5,1976.2z"/>
		<path class="st8" d="M469.6,1978.1c119.2,0.3,238.5,0.6,357.8,0.9c-25.2,111.5-50.5,223.1-77.2,341.3    c-86.6-12.2-170.1-23.9-253.6-35.6C487.6,2182.5,478.6,2080.3,469.6,1978.1z"/>
		<path class="st9" d="M1944.6,2286c-9.2-58.8-19.7-117.4-27.3-176.5c-5.5-42.8-7.3-86-10.7-129c96.8-1.2,193.7-2.4,290.5-3.5    c3.3,0.5,6.6,1,9.9,1.5C2119.5,2081,2032.1,2183.5,1944.6,2286z"/>
		<path class="st10" d="M469.6,1978.1c9,102.2,18,204.4,26.9,306.6c-68.5-102.3-136.9-204.6-205.3-306.9    c55.9-0.2,111.8-0.4,167.8-0.6C462.5,1977.5,466.1,1977.8,469.6,1978.1z"/>
		<path class="st11" d="M459,1977.2c-55.9,0.2-111.8,0.4-167.8,0.6c49.7-97.4,99.3-194.9,149-292.3c3.4,58.7,6.4,117.4,10.1,176.1    C452.8,1900.2,456.1,1938.7,459,1977.2z"/>
		<path class="st12" d="M2207,1978.5c-3.3-0.5-6.6-1-9.9-1.5c2.8-2.8,5.6-5.7,8.4-8.5c1,2.1,2.2,4.2,2.7,6.4    C2208.5,1975.9,2207.5,1977.3,2207,1978.5z"/>
		<path class="st6" d="M1580.5,1976l-4.5,0.8c0,0-4.5-0.8-4.5-0.8c-0.4-5.8-0.7-11.5-1.1-17.3    C1573.8,1964.4,1577.2,1970.2,1580.5,1976z"/>
	</g>
</g>
</svg>