<?xml version="1.0" encoding="UTF-8"?>
<!-- Generator: Adobe Illustrator 22.1.0, SVG Export Plug-In . SVG Version: 6.00 Build 0)  -->
<svg version="1.1" id="Layer_1" xmlns="http://www.w3.org/2000/svg" xmlns:xlink="http://www.w3.org/1999/xlink" x="0px" y="0px" viewBox="0 0 2500 2500" style="enable-background:new 0 0 2500 2500;" xml:space="preserve">
<style type="text/css">
	.st0{fill:#FA9D0F;}
	.st1{fill:#3C3323;}
	.st2{fill:#F99B0E;}
	.st3{fill:#F99C0E;}
	.st4{fill:#F79B0E;}
	.st5{fill:#413622;}
</style>
<g>
	<g>
		<path class="st0" d="M2208.8,2219.3c-640.6,0-1278,0-1917.6,0c0-639.3,0-1276.8,0-1917.4c637.9,0,1276.3,0,1917.6,0    C2208.8,939.3,2208.8,1577.8,2208.8,2219.3z"/>
		<path class="st1" d="M2034.9,2045.5c-524.5,0-1046,0-1569.8,0c0-523.4,0-1044.9,0-1566.7c29.4-8.6,1464-12.6,1569.8-4    C2034.9,997.1,2034.9,1519.7,2034.9,2045.5z"/>
		<path class="st2" d="M1039.3,845.4c66.4,0,131,0,201.4,0c91.5,281.5,183.6,564.7,277,851.8c-57.4,0-111.5,0-168.8,0    c-24.9-77.4-50.1-155.8-76-236.2c-89.3,0-178.5,0-272.7,0c-24.1,77.6-48.7,157.2-73.7,237.6c-52.8,0-103.3,0-153.8,0    C772.4,1666.5,945.9,1112,1039.3,845.4z"/>
		<path class="st3" d="M1737.4,1699c-52.2,0-101.4,0-153.3,0c0-205.7,0-410.4,0-617.4c51,0,101.1,0,153.3,0    C1737.4,1287.1,1737.4,1490.7,1737.4,1699z"/>
		<path class="st4" d="M1747.9,908.5c-0.3,47.4-39.6,85-88.6,84.6c-50.8-0.4-86.4-35.7-86.4-85.5c-0.1-51.6,37.2-87.4,89.8-86.3    C1712.5,822.3,1748.2,858.9,1747.9,908.5z"/>
		<path class="st5" d="M1244.1,1338.7c-75.8,0-145.2,0-216.7,0c35.6-121.4,70.4-240.1,106.4-362.8    C1171,1098.1,1206.9,1216.3,1244.1,1338.7z"/>
	</g>
</g>
</svg>