<?xml version="1.0" encoding="UTF-8"?>
<!-- Generator: Adobe Illustrator 22.1.0, SVG Export Plug-In . SVG Version: 6.00 Build 0)  -->
<svg version="1.1" id="Layer_1" xmlns="http://www.w3.org/2000/svg" xmlns:xlink="http://www.w3.org/1999/xlink" x="0px" y="0px" viewBox="0 0 2500 2500" style="enable-background:new 0 0 2500 2500;" xml:space="preserve">
<style type="text/css">
	.st0{fill:#791217;}
	.st1{fill:#E86741;}
	.st2{fill:#E96742;}
	.st3{fill:#9C1F23;}
	.st4{fill:#9D2423;}
	.st5{fill:#C7312A;}
	.st6{fill:#BB3B2E;}
	.st7{fill:#BC382B;}
	.st8{fill:#6D1111;}
</style>
<g>
	<g>
		<path class="st0" d="M291.2,1816.1c1-2.9,2.1-5.7,3.1-8.6c12.1-16.8,24.8-32.8,39.5-47.5c252-252.7,511.9-497.4,761.5-752.6    c13.3-13.6,25.7-30,48.4-27.9c21.1,5.6,29.2,24.4,39.4,40.3c23.2,35.9,46.1,72,68.4,108.6c38.9-47.6,61.1-107.7,105.1-152.9    c3.8-1.5,7.6-1.9,11.6-1.2c17,7.5,28,22.2,40.6,34.8c169.1,168.9,338.4,337.7,507,507.1c81.8,82.2,171,156.8,250.4,241.5    c15.2,16.2,30.4,31.9,41.1,51.5c0.5,5.7,0.9,11.3,1.4,17c-20.3,10.2-41.9,12.8-64.4,12.8c-134.3-0.2-268.5,0-402.8-0.2    c-20.8,0-41.8,0.6-60-12.2c-2.9-0.2-4.9-1.6-6.1-4.3c-28-18.1-41-48.1-57.7-74.7c-115.8-183.4-231.3-367-346.2-550.9    c-5-8-9.5-16.6-20-25.8c-30.7,45.6-58.6,91.3-87.4,136.3c-100.5,157.1-198.9,315.6-299.7,472.4c-10.4,16.2-20.5,32.9-36.7,44.4    c-1.6,2.1-3.6,2.9-6.2,2.6c-15.8,10.5-33.6,11.3-51.8,12c-145.5,5.6-290.5-9.1-435.9-8.8C318.2,1830,303.5,1826.7,291.2,1816.1z"/>
		<path class="st1" d="M2207.4,1809.1c-4.6-2.8-10-4.9-13.8-8.6c-276.1-273.8-552-547.7-827.9-821.6c-10.2-23.8,7.4-39.1,17.9-55.9    c96.3-154.5,193.6-308.3,290.6-462.3l0.3,1.2c4.3-3,7.5-6.7,8.6-12c8-8.9,16-17.7,27.9-30.9c50.9,141.6,99.8,277.6,148.8,413.6    c112.5,312.2,225.1,624.3,337.4,936.5C2201.8,1782.1,2204,1795.8,2207.4,1809.1z"/>
		<path class="st2" d="M1140.2,984.4c-11.6,9.6-24,18.3-34.7,28.8c-261,257.1-521.7,514.3-782.6,771.4c-8.7,8.5-19,15.3-28.5,22.9    c41.5-115.4,82.5-231.1,124.7-346.3c123.2-335.5,246.8-670.9,370.4-1006.2c3.7-10.1,8.5-19.9,14.3-33.3    c6.4,7.1,10.7,11.8,14.9,16.5c5.7,3.5,3.6,12.2,10.2,15l0.1-1.7c61.7,86.3,112.6,179.4,169.4,268.8    c45.8,72.1,88.5,146,134.1,218.2c7.3,11.6,15.7,22.8,15.5,37.6C1147.1,980.6,1144.5,983.3,1140.2,984.4z"/>
		<path class="st3" d="M827.6,1824.1c39.3-64.4,77.7-129.4,118.1-193.2c94.2-149,189.3-297.4,284.2-446    c6.5-10.1,13.9-19.6,23.8-33.3c61,95.5,119.6,186.6,177.6,278.2c80.3,126.8,160.3,253.8,240.2,380.9c2.1,3.4,2.7,7.7,4,11.6    C1392.9,1822.9,1110.3,1823.5,827.6,1824.1z"/>
		<path class="st4" d="M291.2,1816.1c176.8,3.5,353.5,7,530.3,10.6c-54.3,84.8-108.8,169.5-162.9,254.4    c-18.8,29.5-51.5,26-68.2,11.2C488.8,2002.4,390.6,1908.6,291.2,1816.1z"/>
		<path class="st5" d="M1681.6,1826.6c175.7-0.1,351.5-0.3,527.2-0.4c-117.5,91.1-234.9,182.1-356.8,276.6    C1793.9,2008.6,1737.8,1917.6,1681.6,1826.6z"/>
		<path class="st6" d="M1142.8,976.9c-93.9-153.4-187.9-306.6-281.3-460.2c-12.5-20.6-21.8-43.3-32.5-65    c10.5,8.5,21.8,16.2,31.4,25.6c121.3,121,242.1,242.3,363.6,363c10,9.9,24,15.7,36.1,23.5c1.6,3.7,1.4,7.4-0.2,11.1    c-26.3,33.6-58.7,61.5-88.7,91.5C1163.8,973.7,1155.8,983.3,1142.8,976.9z"/>
		<path class="st7" d="M1258.6,872.4c0.5-2.9,1-5.7,1.5-8.6c138.1-134.4,276.1-268.7,414.2-403.1c-10.3,23.3-18,48.2-31.3,69.5    C1556.1,669,1468,806.8,1380.7,945.2c-6.5,10.3-10.1,22.5-15,33.8c-2.3-0.3-4.5-0.6-6.8-0.7    C1319.2,948.9,1280.3,918.8,1258.6,872.4z"/>
		<path class="st6" d="M828.8,453.3c-3.4-5-6.8-10-10.2-15C822,443.3,825.4,448.3,828.8,453.3z"/>
		<path class="st7" d="M1683.1,450c-2.9,4-5.7,8-8.6,11.9C1677.4,457.9,1680.2,454,1683.1,450z"/>
		<path class="st8" d="M1258.6,872.4c33.5,35.3,66.9,70.5,100.4,105.8c-33.8,54.1-67.6,108.2-103.6,165.6    c-40.8-56.5-77.9-107.9-115.1-159.4c0.9-2.5,1.7-5,2.5-7.5C1181.4,942,1220,907.2,1258.6,872.4z"/>
	</g>
</g>
</svg>