<?xml version="1.0" encoding="UTF-8"?>
<!-- Generator: Adobe Illustrator 22.1.0, SVG Export Plug-In . SVG Version: 6.00 Build 0)  -->
<svg version="1.1" id="Layer_1" xmlns="http://www.w3.org/2000/svg" xmlns:xlink="http://www.w3.org/1999/xlink" x="0px" y="0px" viewBox="0 0 2500 2500" style="enable-background:new 0 0 2500 2500;" xml:space="preserve">
<style type="text/css">
	.st0{fill:#90C4FB;}
	.st1{fill:#2D2668;}
	.st2{fill:#8EC2F9;}
	.st3{fill:#2E2769;}
</style>
<g>
	<g>
		<path class="st0" d="M291.2,300.5c640.3,0,1277.8,0,1917.6,0c0,639.3,0,1276.8,0,1914.6c-29.6,8.8-1800.7,13.1-1917.6,4.2    C291.2,1581,291.2,942.5,291.2,300.5z"/>
		<path class="st1" d="M465,474.4c524.5,0,1046.2,0,1570,0c0,523.4,0,1045.1,0,1567c-29.9,8.4-1456.3,12.5-1570,4    C465,1523,465,1000.3,465,474.4z"/>
		<path class="st2" d="M891.8,1359c0,106.8,0,209.8,0,314.9c-52.3,0-101.5,0-153.4,0c0-279.6,0-559.2,0-844.4    c31.5-4.7,64.7-12.5,98.3-14c85.3-3.8,171-10.3,255.9,5.8c95.2,18.1,172.2,62.9,205.1,158.9c47.1,137.5-1.1,297.2-168.1,352.8    c-45,15-94,19.5-141.5,25.3C958.3,1362,927.7,1359,891.8,1359z"/>
		<path class="st2" d="M1332,1645.6c10.6-38.6,20-73,29.6-108.2c32.6,10.5,64.1,23.7,96.9,30.3c30.6,6.1,62.8,7.9,94.1,6.7    c35.8-1.4,63.1-26.2,68.7-55.8c5.1-27.2-10.9-57.9-41.9-73.5c-27-13.6-56.6-21.9-83.2-36.1c-32.6-17.3-66-34.8-94.3-58    c-87-71.7-58.6-196.1,11.1-253.8c40.3-33.3,87.7-51,140.5-53.4c55.5-2.5,110.3,0,162.9,20.2c10.1,3.9,19.4,9.7,31.6,15.9    c-9.7,35.2-19,69.2-29.6,107.5c-12.6-4.7-23.4-9-34.4-12.7c-43.2-14.5-86.2-28.6-132.8-15.2c-27.7,8-47.2,24-51.3,53    c-4,28.1,11.8,48.5,34.8,60.7c26.6,14.2,56.1,22.9,82.9,36.7c34,17.5,69.9,33.8,99.3,57.7c84.9,69.1,77.3,222.8-33.3,284.8    c-66.7,37.4-138.8,43.7-212.5,35.3C1423.5,1682.5,1376.5,1672.2,1332,1645.6z"/>
		<path class="st3" d="M892.4,1230.9c0-93.7,0-181.7,0.1-269.6c0-6.6,1-13.2,1.5-20.5c55.9-13.4,109.6-14.7,163.5,2    c63.1,19.6,93.8,56.7,98.9,126.7c4.5,62-23.7,115.8-78.4,143.1C1020.1,1241.5,959.1,1238.5,892.4,1230.9z"/>
	</g>
</g>
</svg>