<?xml version="1.0" encoding="UTF-8"?>
<!-- Generator: Adobe Illustrator 22.1.0, SVG Export Plug-In . SVG Version: 6.00 Build 0)  -->
<svg version="1.1" id="Layer_1" xmlns="http://www.w3.org/2000/svg" xmlns:xlink="http://www.w3.org/1999/xlink" x="0px" y="0px" viewBox="0 0 2500 2500" style="enable-background:new 0 0 2500 2500;" xml:space="preserve">
<style type="text/css">
	.st0{fill:#F9861C;}
	.st1{fill:#F0F0F0;}
	.st2{fill:#1568AD;}
</style>
<g>
	<g>
		<path class="st0" d="M866.7,1425.8c-73.2,57.2-151.1,118-228.9,178.9c-46.6,36.5-91.2,76.1-140.4,108.5    c-31.1,20.5-68.1,38-104.4,43.4c-74.6,11.2-122.1-50.6-93.1-120.7c13.6-32.8,37-66,64.7-87.9c230-181.8,462-360.9,693.4-541    c4-3.1,6.9-7.5,15.1-16.7c-18.9-0.9-31.9-2.1-44.8-2.1c-111.5-0.3-223.1,0.2-334.6-1c-24.4-0.3-52.7,0.2-72.2-11.4    c-20.9-12.4-39.2-36.5-48.5-59.5c-11.3-27.9,1.6-58.7,28.9-70c39.7-16.3,82.8-33.2,124.6-33.7c240.9-3.1,481.9-1.5,722.8-1.5    c13.7,0,27.4,0,41.1,0c4.4-4.7,8.8-9.4,13.3-14.1c-10-3.6-21.8-5-29.7-11.3c-71.3-56.3-142.5-112.8-212.7-170.4    c-49.6-40.7-63.1-74.4-46.7-108.2c17.3-35.7,71.1-53.1,124.7-35.6c26.8,8.7,53.7,22.5,75.8,39.9    c189.1,149.2,377.8,299,565.3,450.2c308.8,249.2,303.5,695.9-10.2,939c-337.2,261.3-851.1,152.5-1028.4-222.1    C905,1600.9,891.6,1512,866.7,1425.8z"/>
		<path class="st1" d="M1561.1,1764.9c-227.3,0.3-401.5-141.1-430.2-344.6c-15.5-109.9,19.4-207.1,92.9-289.2    c162.1-181.1,455.6-192,629.8-22.4c103.9,101.2,143.1,225.4,102.9,366c-43.6,152.7-153.3,239.7-303.8,279.2    c-14.6,3.8-29.6,6.6-44.6,8.1C1589,1764.1,1569.7,1764.4,1561.1,1764.9z"/>
		<path class="st2" d="M1558.6,1134.1c159.7,1.4,276.3,135.4,245.5,281.8c-27.6,130.9-174.9,214.4-316.2,179.1    c-133.4-33.3-213.6-160.2-179.8-284.3C1336.8,1205.4,1439.4,1133.1,1558.6,1134.1z"/>
	</g>
</g>
</svg>