<?xml version="1.0" encoding="UTF-8"?>
<!-- Generator: Adobe Illustrator 22.1.0, SVG Export Plug-In . SVG Version: 6.00 Build 0)  -->
<svg version="1.1" id="Layer_1" xmlns="http://www.w3.org/2000/svg" xmlns:xlink="http://www.w3.org/1999/xlink" x="0px" y="0px" viewBox="0 0 2500 2500" style="enable-background:new 0 0 2500 2500;" xml:space="preserve">
<style type="text/css">
	.st0{fill:#E2E2E2;}
</style>
<g>
	<g>
		<path class="st0" d="M2208.7,1262.2c0,211.2,0.2,422.4,0,633.6c-0.2,185.6-136.1,322.4-320.9,322.5c-425.1,0.3-850.3,0.3-1275.4,0    c-182.5-0.1-320.4-136.5-320.6-318.9c-0.7-426.5-0.7-853,0-1279.5c0.3-182.1,138.3-318.4,321.2-318.6    c425.1-0.4,850.3-0.5,1275.4,0c184.6,0.2,320.2,137.7,320.4,323.2C2208.9,837.1,2208.7,1049.7,2208.7,1262.2z M739.8,1192.4    c63-8.4,116.3-23.6,162.7-57.2c8.6-6.2,13.8-20.6,15.8-32c16.4-95.4,119.6-164.6,215.5-139.7c78.4,20.4,143,67.4,208.2,117.4    c-53.9,59.7-103.1,117.5-156.3,171.5c-22.3,22.6-50.7,42.7-80.1,54c-133.4,51.2-264.1,108.4-370.2,205.9    c-49.8,45.8-90.8,102.9-127.9,160c-28.6,44-8.6,73.7,41.9,61.6c67.4-16.3,139.8-33.6,195.4-71.8c93.6-64.3,175.1-146,263.1-218.8    c16.5-13.6,39.7-27.5,59.6-27.2c86.7,1.2,174.8-0.7,259.5,14.8c73,13.3,143.7,45,212.3,75.5c36.8,16.4,54.9,50.4,43.1,96.9    c-4.3,17,4.5,46.2,17.9,57.4c48.3,40.6,100.4,76.9,152.7,112.4c11.6,7.8,30,5.6,45.2,8c-1-15.3,1.9-32.2-3.7-45.6    c-93.8-226-265.6-364.1-495.8-434c-47.6-14.4-97.6-20.7-149.6-31.4c25.4-27.9,49.4-54.3,73.5-80.6c24-26.2,48-52.3,71-77.3    c121.1,50.1,217.8,21.1,296.6-86.7c19.1-26.1,38-54.2,17-86.9c-21.3-33.1-57.8-41.7-91.6-32.2c-37.7,10.7-71.6,34-108.4,48.8    c-14.3,5.7-33.3,8-47.8,3.6c-60.5-18.3-118.9-44.7-180.2-59.1c-213.5-50-443.9,66.7-534.4,267.2    C742.8,1171.8,742.8,1177.4,739.8,1192.4z M1389.4,853.3c11.5-1.5,22.4-2.6,33.2-4.3c76.6-11.7,91.1-38.8,57.7-109.3    c-8.1-17.2-18.1-34.1-29.9-49c-31.7-39.9-73.3-52.5-112.5-36.3c-41.6,17.3-79.3,78.6-73.4,119.4c5.2,35.9,44.1,67.7,92.6,75.6    C1368,851.1,1378.9,852,1389.4,853.3z"/>
		<path class="st0" d="M1028.3,1436.6c-80.1,97-172.1,178-286.3,231c-9.9,4.6-20.8,7.4-31.5,9.4c-35.8,6.5-48.2-6.7-33.5-40.3    c10.2-23.4,24.5-47.1,42.9-64.4C806,1491.1,913.3,1455.5,1028.3,1436.6z"/>
		<path class="st0" d="M1547.2,990.3c43.2-30.7,83.9-44,132.3-31.4C1658.1,1004.8,1611.2,1016,1547.2,990.3z"/>
	</g>
</g>
</svg>